<?xml version="1.0" standalone="no"?>
<!DOCTYPE svg PUBLIC "-//W3C//DTD SVG 20010904//EN"
 "http://www.w3.org/TR/2001/REC-SVG-20010904/DTD/svg10.dtd">
<svg version="1.0" xmlns="http://www.w3.org/2000/svg"
 width="860.000000pt" height="679.000000pt" viewBox="0 0 860.000000 679.000000"
 preserveAspectRatio="xMidYMid meet">

<g transform="translate(0.000000,679.000000) scale(0.100000,-0.100000)"
fill="#000000" stroke="none">
<path d="M4464 6328 c-15 -101 -7 -365 15 -489 44 -255 111 -405 294 -667 374
-534 609 -920 696 -1139 74 -189 72 -500 -6 -716 -60 -169 -143 -295 -278
-426 -155 -150 -333 -255 -590 -348 l-120 -44 65 6 c311 28 698 195 980 422
219 177 428 440 556 698 210 427 249 904 110 1362 -95 315 -250 577 -470 799
-322 322 -735 526 -1197 590 l-47 6 -8 -54z"/>
<path d="M3858 6320 c-365 -97 -714 -314 -963 -599 -247 -284 -401 -582 -471
-915 -32 -152 -43 -430 -24 -594 24 -210 96 -443 203 -657 230 -463 681 -828
1207 -980 110 -31 211 -53 200 -42 -3 2 -55 25 -116 51 -123 52 -263 131 -352
199 -149 115 -291 300 -352 460 -53 136 -63 197 -64 377 0 144 3 179 26 276
39 166 115 342 207 479 35 53 38 62 27 80 -36 55 -123 217 -163 302 -75 161
-86 219 -86 433 0 171 2 193 27 285 95 349 331 608 718 790 120 56 158 86 106
84 -13 -1 -71 -14 -130 -29z"/>
<path d="M655 3147 c-3 -7 -4 -129 -3 -272 l3 -260 259 -3 c182 -2 263 1 272
9 11 9 14 61 14 259 0 137 -3 255 -6 264 -5 14 -39 16 -270 16 -204 0 -266 -3
-269 -13z"/>
<path d="M317 2983 c-4 -3 -7 -64 -7 -135 l0 -128 130 0 130 0 0 135 0 135
-123 0 c-68 0 -127 -3 -130 -7z"/>
<path d="M360 2450 l0 -131 128 3 127 3 0 125 0 125 -127 3 -128 3 0 -131z"/>
<path d="M722 2398 l3 -153 153 -3 152 -3 0 156 0 155 -155 0 -156 0 3 -152z"/>
<path d="M350 1645 l0 -615 130 0 130 0 0 615 0 615 -130 0 -130 0 0 -615z"/>
<path d="M4980 2110 l0 -140 -75 0 -75 0 0 -90 0 -90 74 0 75 0 3 -312 c4
-372 4 -373 103 -423 58 -29 64 -30 200 -30 l140 0 3 100 3 100 -75 0 c-116 0
-110 -15 -114 300 l-3 265 96 0 95 0 0 90 0 90 -95 0 -95 0 0 140 0 140 -130
0 -130 0 0 -140z"/>
<path d="M1210 1981 c-54 -17 -113 -54 -150 -92 l-39 -40 -3 58 -3 58 -122 3
-123 3 0 -471 0 -470 129 0 130 0 3 308 c3 288 4 310 24 353 31 66 80 94 166
94 75 0 109 -18 143 -76 19 -32 20 -55 23 -356 l3 -323 130 0 129 0 0 331 c0
372 -8 433 -63 517 -24 35 -48 55 -92 77 -53 26 -71 30 -160 32 -55 1 -111 -1
-125 -6z"/>
<path d="M3068 1971 c-144 -47 -252 -159 -298 -310 -24 -76 -27 -239 -6 -317
21 -79 73 -169 128 -220 174 -163 500 -162 661 1 44 45 107 152 107 182 0 10
-24 13 -107 13 l-106 0 -35 -41 c-20 -23 -54 -50 -76 -60 -47 -21 -131 -24
-191 -8 -72 20 -135 110 -135 193 l0 26 335 0 335 0 0 78 c0 197 -94 363 -248
439 -73 37 -80 38 -191 40 -92 2 -128 -1 -173 -16z m225 -185 c52 -19 76 -42
103 -101 42 -90 52 -85 -182 -85 l-207 0 6 36 c7 44 47 107 82 130 51 33 136
42 198 20z"/>
<path d="M4240 1968 c-35 -14 -73 -39 -107 -74 l-53 -53 0 65 0 65 -122 -3
-123 -3 -3 -467 -2 -468 129 0 129 0 4 298 c5 329 12 368 69 417 57 47 169 57
227 19 13 -9 34 -37 45 -62 21 -44 22 -64 25 -359 l4 -313 129 0 129 0 0 308
c0 348 -8 421 -50 508 -50 102 -135 144 -289 143 -62 0 -101 -6 -141 -21z"/>
<path d="M5860 1976 c-150 -42 -258 -145 -311 -297 -29 -85 -32 -254 -5 -344
70 -235 282 -362 543 -327 196 26 335 143 389 327 21 74 24 228 5 305 -42 170
-161 292 -326 336 -62 17 -234 17 -295 0z m262 -208 c89 -49 135 -212 104
-364 -28 -137 -99 -204 -216 -204 -133 1 -209 86 -226 253 -12 118 33 262 96
307 63 45 169 49 242 8z"/>
<path d="M7091 1968 c-52 -20 -139 -94 -168 -143 -10 -17 -12 -6 -12 63 l-1
82 -125 0 -125 0 0 -470 0 -470 129 0 129 0 4 263 c3 248 4 265 26 312 49 106
112 144 240 145 l83 0 -3 118 -3 117 -60 2 c-41 2 -77 -4 -114 -19z"/>
<path d="M1760 1963 c0 -7 282 -835 304 -893 l14 -35 146 -3 c80 -1 146 -1
146 1 0 2 70 210 155 461 85 252 155 462 155 467 0 6 -52 8 -127 7 l-127 -3
-63 -205 c-35 -113 -80 -257 -99 -320 l-36 -115 -79 255 c-44 140 -89 285
-100 323 l-20 67 -134 0 c-74 0 -135 -3 -135 -7z"/>
<path d="M7340 1960 c0 -5 76 -211 169 -458 170 -450 191 -517 191 -597 0 -36
-5 -47 -31 -69 -29 -25 -35 -26 -160 -26 l-129 0 0 -104 0 -103 38 -7 c61 -10
257 -7 312 5 67 14 138 64 173 121 19 31 90 246 213 645 101 329 184 599 184
601 0 1 -60 2 -134 2 l-134 0 -47 -147 c-116 -367 -158 -493 -162 -490 -2 3
-50 146 -106 318 l-103 314 -137 3 c-89 2 -137 -1 -137 -8z"/>
<path d="M2073 888 c-54 -11 -83 -47 -83 -100 0 -51 33 -82 103 -98 96 -22
128 -65 68 -90 -43 -17 -88 -4 -106 31 -12 22 -23 29 -45 29 -38 0 -44 -12
-26 -55 26 -62 133 -94 209 -61 48 20 72 52 72 96 0 56 -30 83 -121 109 -76
22 -96 40 -74 66 25 30 110 10 110 -26 0 -5 16 -9 35 -9 29 0 35 4 35 21 0 66
-84 107 -177 87z"/>
<path d="M4280 889 c-44 -10 -90 -60 -90 -99 0 -46 36 -78 119 -103 87 -26
108 -48 72 -78 -39 -32 -104 -18 -121 26 -8 22 -15 26 -42 23 -30 -3 -33 -6
-31 -33 7 -91 182 -128 255 -55 21 22 28 38 28 68 0 57 -24 80 -115 110 -72
24 -80 30 -80 52 0 22 5 25 42 28 36 3 44 -1 59 -22 12 -20 25 -26 50 -26 37
0 42 12 23 53 -21 46 -99 72 -169 56z"/>
<path d="M2659 879 c-25 -9 -49 -45 -49 -74 0 -8 -9 -15 -20 -15 -14 0 -20 -7
-20 -21 0 -12 8 -23 20 -26 18 -5 20 -14 20 -104 l0 -99 35 0 35 0 0 99 0 99
28 3 c69 10 72 6 72 -91 0 -101 6 -110 79 -110 37 0 41 3 41 24 0 18 -6 25
-22 28 -21 3 -23 9 -26 76 -3 71 -3 72 23 72 20 0 25 5 25 25 0 20 -5 25 -25
25 -22 0 -25 4 -25 40 0 39 -1 40 -35 40 -34 0 -35 -1 -35 -39 0 -32 -4 -39
-22 -43 -34 -6 -73 6 -73 22 0 8 11 17 25 20 18 4 25 13 25 30 0 19 -6 25 -25
27 -14 1 -37 -3 -51 -8z"/>
<path d="M5040 830 c0 -33 -3 -40 -20 -40 -15 0 -20 -7 -20 -25 0 -18 5 -25
20 -25 18 0 20 -7 20 -84 0 -101 10 -116 76 -116 40 0 44 2 44 24 0 18 -6 25
-22 28 -21 3 -23 9 -26 76 -3 71 -3 72 23 72 20 0 25 5 25 25 0 20 -5 25 -25
25 -22 0 -25 4 -25 40 0 39 -1 40 -35 40 -34 0 -35 -1 -35 -40z"/>
<path d="M2362 783 c-41 -20 -64 -62 -64 -118 0 -57 24 -99 68 -120 46 -22
112 -13 147 19 66 61 49 189 -28 222 -44 18 -82 17 -123 -3z m109 -64 c6 -12
11 -36 11 -54 0 -52 -17 -75 -57 -75 -40 0 -55 20 -55 75 0 55 15 75 55 75 25
0 37 -6 46 -21z"/>
<path d="M3373 785 c-30 -13 -53 -41 -53 -64 0 -21 64 -12 78 10 18 29 76 23
80 -8 3 -23 -3 -26 -73 -38 -54 -9 -74 -22 -86 -52 -27 -71 59 -127 133 -89
16 9 30 11 33 5 4 -5 21 -9 38 -9 l32 0 -5 112 -5 113 -35 17 c-42 21 -93 22
-137 3z m107 -149 c0 -49 -68 -78 -89 -38 -14 26 -1 40 44 51 22 5 41 9 43 10
1 1 2 -10 2 -23z"/>
<path d="M3720 793 c-8 -3 -23 -12 -32 -21 -16 -14 -18 -13 -18 1 0 13 -9 17
-35 17 l-35 0 0 -125 0 -125 35 0 35 0 0 66 c0 88 19 124 68 124 19 0 22 5 22
35 0 35 -7 40 -40 28z"/>
<path d="M3843 785 c-69 -30 -95 -130 -50 -196 27 -40 83 -64 130 -55 38 7 87
47 87 71 0 20 -46 20 -66 0 -31 -31 -104 -9 -104 31 0 11 19 14 90 14 l90 0 0
29 c0 15 -10 43 -23 62 -38 57 -90 72 -154 44z m97 -64 c15 -30 14 -31 -45
-31 -59 0 -60 1 -45 31 7 13 21 19 45 19 24 0 38 -6 45 -19z"/>
<path d="M4815 793 c-46 -11 -75 -65 -56 -102 11 -20 41 -34 109 -51 30 -8 42
-16 42 -29 0 -35 -62 -43 -82 -11 -15 23 -78 29 -78 7 0 -26 32 -57 69 -68 79
-23 161 15 161 75 0 42 -24 64 -90 81 -60 16 -65 19 -57 40 8 19 51 20 67 0
14 -17 70 -21 70 -4 0 50 -77 81 -155 62z"/>
<path d="M5253 786 c-50 -23 -75 -70 -70 -134 3 -37 10 -59 27 -77 29 -31 82
-49 125 -41 35 7 85 49 85 72 0 19 -48 18 -66 -1 -31 -31 -104 -9 -104 31 0
11 19 14 90 14 84 0 90 1 90 20 0 30 -24 82 -48 103 -27 25 -89 31 -129 13z
m97 -65 c15 -30 14 -31 -45 -31 -59 0 -60 1 -45 31 7 13 21 19 45 19 24 0 38
-6 45 -19z"/>
<path d="M5568 784 c-16 -8 -28 -10 -28 -4 0 5 -16 10 -35 10 l-35 0 0 -125 0
-125 35 0 35 0 0 84 c0 90 11 116 50 116 30 0 40 -31 40 -119 l0 -81 35 0 35
0 0 89 c0 96 9 115 52 109 22 -3 23 -8 28 -98 l5 -95 33 -3 32 -3 0 109 c0 93
-3 111 -18 125 -31 29 -77 32 -117 9 -19 -12 -35 -18 -35 -13 0 10 -46 31 -68
31 -9 -1 -29 -8 -44 -16z"/>
<path d="M2912 773 c3 -10 21 -66 39 -125 l34 -108 37 0 c40 0 44 7 64 108 11
54 21 46 40 -33 l18 -75 37 0 38 0 35 114 c20 63 36 119 36 125 0 6 -15 11
-34 11 -34 0 -34 0 -51 -70 -9 -39 -20 -72 -24 -75 -4 -2 -16 30 -25 71 l-18
75 -36 -3 -36 -3 -20 -80 -20 -80 -21 80 -22 80 -38 3 c-32 3 -37 1 -33 -15z"/>
<path d="M4511 708 c71 -190 72 -198 19 -198 -28 0 -31 -3 -28 -27 3 -24 8
-28 39 -31 57 -5 81 23 124 140 21 57 46 124 56 151 l19 47 -39 0 -38 0 -23
-80 c-12 -44 -26 -78 -29 -75 -4 2 -18 38 -31 79 l-24 76 -38 0 -37 0 30 -82z"/>
<path d="M840 675 c0 -13 63 -15 510 -15 447 0 510 2 510 15 0 13 -63 15 -510
15 -447 0 -510 -2 -510 -15z"/>
<path d="M5950 675 c0 -13 63 -15 510 -15 447 0 510 2 510 15 0 13 -63 15
-510 15 -447 0 -510 -2 -510 -15z"/>
</g>
</svg>
